<svg
   xmlns:dc="http://purl.org/dc/elements/1.1/"
   xmlns:cc="http://creativecommons.org/ns#"
   xmlns:rdf="http://www.w3.org/1999/02/22-rdf-syntax-ns#"
   xmlns:svg="http://www.w3.org/2000/svg"
   xmlns="http://www.w3.org/2000/svg"
   xmlns:sodipodi="http://sodipodi.sourceforge.net/DTD/sodipodi-0.dtd"
   xmlns:inkscape="http://www.inkscape.org/namespaces/inkscape"
   viewBox="0 0 700.00001 500.00001"
   id="svg2"
   version="1.1"
   inkscape:version="0.91 r13725"
   sodipodi:docname="rekenkracht.svg">
  <defs
     id="defs4">
         <link href="/css/font.css" type="text/css" rel="stylesheet"
               xmlns="http://www.w3.org/1999/xhtml"/>
     </defs>
  <sodipodi:namedview
     id="base"
     pagecolor="#ffffff"
     bordercolor="#666666"
     borderopacity="1.0"
     inkscape:pageopacity="0.0"
     inkscape:pageshadow="2"
     inkscape:zoom="1"
     inkscape:cx="225.1454"
     inkscape:cy="248.8773"
     inkscape:document-units="px"
     inkscape:current-layer="g4271"
     showgrid="false"
     showguides="false"
     inkscape:window-width="1920"
     inkscape:window-height="1056"
     inkscape:window-x="1920"
     inkscape:window-y="24"
     inkscape:window-maximized="1"
     units="px" />
  <metadata
     id="metadata7">
    <rdf:RDF>
      <cc:Work
         rdf:about="">
        <dc:format>image/svg+xml</dc:format>
        <dc:type
           rdf:resource="http://purl.org/dc/dcmitype/StillImage" />
        <dc:title />
      </cc:Work>
    </rdf:RDF>
  </metadata>
  <g
     inkscape:label="Layer 1"
     inkscape:groupmode="layer"
     id="layer1"
     transform="translate(0,-552.36216)">
    <g
       id="g4271"
       transform="matrix(1.5569758,0,0,1.5569758,-11.532698,580.35856)">
      <g
         transform="matrix(0.47006898,0,0,0.47006898,112.91275,12.783842)"
         id="g4163">
        <rect
           style="opacity:1;fill:#ffb380;fill-opacity:1;stroke:none;stroke-width:0.5;stroke-miterlimit:4;stroke-dasharray:none;stroke-opacity:1"
           id="rect4150"
           width="181.82745"
           height="60.609154"
           x="336.88589"
           y="214.94576"
           rx="9.5964489"
           ry="9.5964489" />
        <text
           sodipodi:linespacing="125%"
           id="text4142"
           y="256.20554"
           x="350.29398"
           style="font-style:normal;font-weight:normal;font-size:40px;line-height:125%;font-family:sans-serif;letter-spacing:0px;word-spacing:0px;fill:#000000;fill-opacity:1;stroke:none;stroke-width:1px;stroke-linecap:butt;stroke-linejoin:miter;stroke-opacity:1"
           xml:space="preserve"><tspan
             y="256.20554"
             x="350.29398"
             id="tspan4144"
             sodipodi:role="line"
             style="font-style:normal;font-variant:normal;font-weight:normal;font-stretch:normal;font-family:Bariol;-inkscape-font-specification:Bariol">Response</tspan></text>
      </g>
      <g
         transform="translate(25.343022,-110.91118)"
         id="g4192">
        <rect
           style="opacity:1;fill:#c6e9af;fill-opacity:1;stroke:none;stroke-width:0.5;stroke-miterlimit:4;stroke-dasharray:none;stroke-opacity:1"
           id="rect4152-4"
           width="131.76848"
           height="28.490484"
           x="295.7753"
           y="279.20895"
           rx="4.510993"
           ry="4.510993" />
        <text
           xml:space="preserve"
           style="font-style:normal;font-weight:normal;font-size:18.80275917px;line-height:125%;font-family:sans-serif;letter-spacing:0px;word-spacing:0px;fill:#000000;fill-opacity:1;stroke:none;stroke-width:1px;stroke-linecap:butt;stroke-linejoin:miter;stroke-opacity:1"
           x="303.58295"
           y="300.29306"
           id="text4146"
           sodipodi:linespacing="125%"><tspan
             sodipodi:role="line"
             id="tspan4148"
             x="303.58295"
             y="300.29306"
             style="font-style:normal;font-variant:normal;font-weight:normal;font-stretch:normal;font-family:Bariol;-inkscape-font-specification:Bariol">HTML renderen</tspan></text>
      </g>
      <g
         transform="matrix(0.47006898,0,0,0.47006898,-28.910666,102.05979)"
         id="g4158">
        <rect
           ry="9.5964489"
           rx="9.5964489"
           y="219.49144"
           x="132.83507"
           height="60.609161"
           width="152.53304"
           id="rect4152"
           style="opacity:1;fill:#ffb380;fill-opacity:1;stroke:none;stroke-width:0.5;stroke-miterlimit:4;stroke-dasharray:none;stroke-opacity:1" />
        <text
           xml:space="preserve"
           style="font-style:normal;font-weight:normal;font-size:40px;line-height:125%;font-family:sans-serif;letter-spacing:0px;word-spacing:0px;fill:#000000;fill-opacity:1;stroke:none;stroke-width:1px;stroke-linecap:butt;stroke-linejoin:miter;stroke-opacity:1"
           x="146.24316"
           y="260.75122"
           id="text4154"
           sodipodi:linespacing="125%"><tspan
             style="font-style:normal;font-variant:normal;font-weight:normal;font-stretch:normal;font-family:Bariol;-inkscape-font-specification:Bariol"
             sodipodi:role="line"
             id="tspan4156"
             x="146.24316"
             y="260.75122">Request</tspan></text>
      </g>
      <path
         inkscape:connector-curvature="0"
         id="path4199"
         d="m 113.12477,219.24272 c 0,0 125.25891,-27.77919 195.46451,-2.0203 70.20561,25.75889 74.75129,-9.59645 74.75129,-9.59645"
         style="fill:none;fill-rule:evenodd;stroke:#ffffff;stroke-width:0.64227074px;stroke-linecap:butt;stroke-linejoin:miter;stroke-opacity:1" />
      <path
         sodipodi:nodetypes="csc"
         inkscape:connector-curvature="0"
         id="path4201"
         d="m 382.07788,165.19955 c 0,0 -4.28682,-8.67692 -21.96732,-6.78579 -23.32626,2.495 -50.62458,2.72503 -51.77381,-9.62919"
         style="fill:none;fill-rule:evenodd;stroke:#ffffff;stroke-width:0.64227074px;stroke-linecap:butt;stroke-linejoin:miter;stroke-opacity:1" />
      <path
         sodipodi:nodetypes="ccc"
         inkscape:connector-curvature="0"
         id="path4203"
         d="m 300.00298,108.63102 c 0,0 -3.3812,-8.3118 -16.26402,-9.3708 C 190.47848,93.74119 32.460197,78.61634 42.084843,137.73725"
         style="fill:none;fill-rule:evenodd;stroke:#ffffff;stroke-width:0.64227074px;stroke-linecap:butt;stroke-linejoin:miter;stroke-opacity:1" />
      <path
         transform="matrix(0.11428562,0.29737464,-0.29737464,0.11428562,280.46519,111.91681)"
         inkscape:transform-center-y="0.4423364"
         inkscape:transform-center-x="-1.7132583"
         d="m 227.81668,303.36137 -22.1402,-5.93245 -22.14021,-5.93245 16.20776,-16.20775 16.20775,-16.20776 5.93245,22.14021 z"
         inkscape:randomized="0"
         inkscape:rounded="0"
         inkscape:flatsided="false"
         sodipodi:arg2="1.8325957"
         sodipodi:arg1="0.78539816"
         sodipodi:r2="13.233577"
         sodipodi:r1="26.467154"
         sodipodi:cy="284.64627"
         sodipodi:cx="209.10158"
         sodipodi:sides="3"
         id="path4205"
         style="opacity:1;fill:#ffffff;fill-opacity:1;stroke:none;stroke-width:0.5;stroke-miterlimit:4;stroke-dasharray:none;stroke-opacity:1"
         sodipodi:type="star" />
      <path
         sodipodi:type="star"
         style="opacity:1;fill:#ffffff;fill-opacity:1;stroke:none;stroke-width:0.5;stroke-miterlimit:4;stroke-dasharray:none;stroke-opacity:1"
         id="path4211"
         sodipodi:sides="3"
         sodipodi:cx="209.10158"
         sodipodi:cy="284.64627"
         sodipodi:r1="26.467154"
         sodipodi:r2="13.233577"
         sodipodi:arg1="0.78539816"
         sodipodi:arg2="1.8325957"
         inkscape:flatsided="false"
         inkscape:rounded="0"
         inkscape:randomized="0"
         d="m 227.81668,303.36137 -22.1402,-5.93245 -22.14021,-5.93245 16.20776,-16.20775 16.20775,-16.20776 5.93245,22.14021 z"
         inkscape:transform-center-x="1.8001225"
         inkscape:transform-center-y="0.34720681"
         transform="matrix(-0.24305668,0.20595224,-0.20595224,-0.24305668,302.90575,120.73643)" />
      <g
         id="g4213"
         transform="matrix(0.47006898,0,0,0.47006898,-57.124952,39.08551)">
        <rect
           style="opacity:1;fill:#ffcc00;fill-opacity:1;stroke:none;stroke-width:0.5;stroke-miterlimit:4;stroke-dasharray:none;stroke-opacity:1"
           id="rect4215"
           width="242.18553"
           height="60.609146"
           x="132.83507"
           y="219.49144"
           rx="9.5964489"
           ry="9.5964489" />
        <text
           sodipodi:linespacing="125%"
           id="text4217"
           y="260.75122"
           x="146.24316"
           style="font-style:normal;font-weight:normal;font-size:40px;line-height:125%;font-family:sans-serif;letter-spacing:0px;word-spacing:0px;fill:#000000;fill-opacity:1;stroke:none;stroke-width:1px;stroke-linecap:butt;stroke-linejoin:miter;stroke-opacity:1"
           xml:space="preserve"><tspan
             y="260.75122"
             x="146.24316"
             id="tspan4219"
             sodipodi:role="line"
             style="font-style:normal;font-variant:normal;font-weight:normal;font-stretch:normal;font-family:Bariol;-inkscape-font-specification:Bariol">Eindgebruiker</tspan></text>
      </g>
      <path
         sodipodi:nodetypes="cc"
         inkscape:connector-curvature="0"
         id="path4221"
         d="m 49.285715,173.79078 c 4.684882,15.00642 6.228473,20.47695 19.285714,27.85714"
         style="fill:none;fill-rule:evenodd;stroke:#ffffff;stroke-width:0.64227074px;stroke-linecap:butt;stroke-linejoin:miter;stroke-opacity:1" />
      <path
         sodipodi:type="star"
         style="opacity:1;fill:#ffffff;fill-opacity:1;stroke:none;stroke-width:0.5;stroke-miterlimit:4;stroke-dasharray:none;stroke-opacity:1"
         id="path4223"
         sodipodi:sides="3"
         sodipodi:cx="209.10158"
         sodipodi:cy="284.64627"
         sodipodi:r1="26.467154"
         sodipodi:r2="13.233577"
         sodipodi:arg1="0.78539816"
         sodipodi:arg2="1.8325957"
         inkscape:flatsided="false"
         inkscape:rounded="0"
         inkscape:randomized="0"
         d="m 227.81668,303.36137 -22.1402,-5.93245 -22.14021,-5.93245 16.20776,-16.20775 16.20775,-16.20776 5.93245,22.14021 z"
         inkscape:transform-center-x="1.1682385"
         inkscape:transform-center-y="-1.0137161"
         transform="matrix(-0.16449536,0.27282624,-0.27282624,-0.16449536,169.97047,182.50996)" />
      <g
         transform="matrix(0.670069,0,0,0.670069,22.879126,-116.93972)"
         id="g4263">
        <rect
           ry="9.5964489"
           rx="9.5964489"
           y="219.49144"
           x="132.83507"
           height="60.609146"
           width="133.66379"
           id="rect4265"
           style="opacity:1;fill:#80e5ff;fill-opacity:1;stroke:none;stroke-width:0.5;stroke-miterlimit:4;stroke-dasharray:none;stroke-opacity:1" />
        <text
           xml:space="preserve"
           style="font-style:normal;font-weight:normal;font-size:40px;line-height:125%;font-family:sans-serif;letter-spacing:0px;word-spacing:0px;fill:#000000;fill-opacity:1;stroke:none;stroke-width:1px;stroke-linecap:butt;stroke-linejoin:miter;stroke-opacity:1"
           x="146.24316"
           y="260.75122"
           id="text4267"
           sodipodi:linespacing="125%"><tspan
             style="font-style:normal;font-variant:normal;font-weight:normal;font-stretch:normal;font-family:Bariol;-inkscape-font-specification:Bariol"
             sodipodi:role="line"
             id="tspan4269"
             x="146.24316"
             y="260.75122">Drupal</tspan></text>
      </g>
      <path
         sodipodi:type="star"
         style="opacity:1;fill:#ffffff;fill-opacity:1;stroke:none;stroke-width:0.5;stroke-miterlimit:4;stroke-dasharray:none;stroke-opacity:1"
         id="path4390"
         sodipodi:sides="3"
         sodipodi:cx="209.10158"
         sodipodi:cy="284.64627"
         sodipodi:r1="26.467154"
         sodipodi:r2="13.233577"
         sodipodi:arg1="0.78539816"
         sodipodi:arg2="1.8325957"
         inkscape:flatsided="false"
         inkscape:rounded="0"
         inkscape:randomized="0"
         d="m 227.81668,303.36137 -22.1402,-5.93245 -22.14021,-5.93245 16.20776,-16.20775 16.20775,-16.20776 5.93245,22.14021 z"
         inkscape:transform-center-x="0.77701201"
         inkscape:transform-center-y="-0.65456969"
         transform="matrix(0.31371893,0.05543745,-0.05543745,0.31371893,294.60074,57.856418)" />
      <g
         id="g5383"
         transform="matrix(0.81081634,-0.3742104,0.3742104,0.81081634,136.45318,109.52117)"
         style="fill:#ffffff">
        <path
           inkscape:connector-curvature="0"
           id="circle3469"
           d="m 276.04881,164.35712 0,3.48703 a 16.330406,16.330406 0 0 0 -5.4587,2.24443 l -2.45321,-2.45321 -4.83067,4.82897 2.46332,2.46331 a 16.330406,16.330406 0 0 0 -2.26632,5.45029 l -3.47356,0 0,6.83094 3.48535,0 a 16.330406,16.330406 0 0 0 2.24443,5.4587 l -2.45322,2.45321 4.83067,4.83066 2.46163,-2.46331 a 16.330406,16.330406 0 0 0 5.45028,2.26632 l 0,3.47356 6.83094,0 0,-3.48535 a 16.330406,16.330406 0 0 0 5.4587,-2.24443 l 2.45322,2.45321 4.83066,-4.83066 -2.46164,-2.46331 a 16.330406,16.330406 0 0 0 2.26465,-5.4486 l 3.47355,0 0,-6.83094 -3.48534,0 a 16.330406,16.330406 0 0 0 -2.24443,-5.46038 l 2.45321,-2.45322 -4.83066,-4.82897 -2.46163,2.46163 a 16.330406,16.330406 0 0 0 -5.45029,-2.26464 l 0,-3.47524 -6.83094,0 z m 3.41632,10.17991 a 9.2556271,9.2556271 0 0 1 9.25552,9.25553 9.2556271,9.2556271 0 0 1 -9.25552,9.25554 9.2556271,9.2556271 0 0 1 -9.25554,-9.25554 9.2556271,9.2556271 0 0 1 9.25554,-9.25553 z"
           style="opacity:1;fill:#ffffff;fill-opacity:1;stroke:none;stroke-width:0.5;stroke-miterlimit:4;stroke-dasharray:none" />
        <path
           style="opacity:1;fill:#ffffff;fill-opacity:1;stroke:none;stroke-width:0.5;stroke-miterlimit:4;stroke-dasharray:none"
           d="m 245.35176,162.21471 0,2.55787 a 11.978985,11.978985 0 0 0 -4.00417,1.64638 l -1.79952,-1.79953 -3.54348,3.54224 1.80694,1.80693 a 11.978985,11.978985 0 0 0 -1.66244,3.998 l -2.54799,0 0,5.01076 2.55664,0 a 11.978985,11.978985 0 0 0 1.64638,4.00417 l -1.79953,1.79952 3.54348,3.54348 1.8057,-1.80693 a 11.978985,11.978985 0 0 0 3.99799,1.66243 l 0,2.54799 5.01076,0 0,-2.55664 a 11.978985,11.978985 0 0 0 4.00417,-1.64638 l 1.79953,1.79953 3.54348,-3.54348 -1.80571,-1.80693 a 11.978985,11.978985 0 0 0 1.66121,-3.99676 l 2.54798,0 0,-5.01076 -2.55663,0 a 11.978985,11.978985 0 0 0 -1.64638,-4.0054 l 1.79953,-1.79953 -3.54348,-3.54224 -1.8057,1.8057 a 11.978985,11.978985 0 0 0 -3.998,-1.6612 l 0,-2.54922 -5.01076,0 z m 2.506,7.46736 a 6.7893607,6.7893607 0 0 1 6.78929,6.78929 6.7893607,6.7893607 0 0 1 -6.78929,6.78929 6.7893607,6.7893607 0 0 1 -6.78929,-6.78929 6.7893607,6.7893607 0 0 1 6.78929,-6.78929 z"
           id="path5381"
           inkscape:connector-curvature="0" />
      </g>
    </g>
  </g>
</svg>
